HIERARCHY
ROOT Hips
{
 OFFSET 0.000000 0.000000 0.000000
 CHANNELS 6 Xposition Yposition Zposition Yrotation Xrotation Zrotation
 JOINT Chest
 {
  OFFSET 0.000000 9.585900 0.002600
  CHANNELS 3 Yrotation Xrotation Zrotation
  JOINT Chest2
  {
   OFFSET 0.000000 9.601200 -0.005300
   CHANNELS 3 Yrotation Xrotation Zrotation
   JOINT Chest3
   {
    OFFSET 0.000000 9.561800 0.000000
    CHANNELS 3 Yrotation Xrotation Zrotation
    JOINT Chest4
    {
     OFFSET 0.000000 9.552100 0.000000
     CHANNELS 3 Yrotation Xrotation Zrotation
     JOINT Neck
     {
      OFFSET 0.000000 14.453000 0.000000
      CHANNELS 3 Yrotation Xrotation Zrotation
      JOINT Head
      {
       OFFSET 0.000000 8.936500 -0.011300
       CHANNELS 3 Yrotation Xrotation Zrotation
       End Site
       {
        OFFSET 0.000000 17.073600 -0.006000
       }
      }
     }
     JOINT RightCollar
     {
      OFFSET -2.921100 9.558500 0.000000
      CHANNELS 3 Yrotation Xrotation Zrotation
      JOINT RightShoulder
      {
       OFFSET -13.519700 0.000000 0.000000
       CHANNELS 3 Yrotation Xrotation Zrotation
       JOINT RightElbow
       {
        OFFSET 0.000000 -29.696600 0.000000
        CHANNELS 3 Yrotation Xrotation Zrotation
        JOINT RightWrist
        {
         OFFSET 0.000000 -24.004700 0.000000
         CHANNELS 3 Yrotation Xrotation Zrotation
         End Site
         {
          OFFSET 0.000000 -17.728500 0.000000
         }
        }
       }
      }
     }
     JOINT LeftCollar
     {
      OFFSET 2.921100 9.558500 0.000000
      CHANNELS 3 Yrotation Xrotation Zrotation
      JOINT LeftShoulder
      {
       OFFSET 13.519700 0.000000 0.000000
       CHANNELS 3 Yrotation Xrotation Zrotation
       JOINT LeftElbow
       {
        OFFSET 0.000000 -29.696600 0.000000
        CHANNELS 3 Yrotation Xrotation Zrotation
        JOINT LeftWrist
        {
         OFFSET 0.000000 -24.004700 0.000000
         CHANNELS 3 Yrotation Xrotation Zrotation
         End Site
         {
          OFFSET 0.000000 -17.728500 0.000000
         }
        }
       }
      }
     }
    }
   }
  }
 }
 JOINT RightHip
 {
  OFFSET -7.771700 -0.012900 -0.001300
  CHANNELS 3 Yrotation Xrotation Zrotation
  JOINT RightKnee
  {
   OFFSET 0.000000 -40.869800 0.001200
   CHANNELS 3 Yrotation Xrotation Zrotation
   JOINT RightAnkle
   {
    OFFSET 0.000000 -39.717900 0.002100
    CHANNELS 3 Yrotation Xrotation Zrotation
    JOINT RightToe
    {
     OFFSET 0.000000 -4.965400 11.033500
     CHANNELS 3 Yrotation Xrotation Zrotation
     End Site
     {
      OFFSET 0.000000 -1.423100 5.872300
     }
    }
   }
  }
 }
 JOINT LeftHip
 {
  OFFSET 7.771700 -0.012900 -0.001300
  CHANNELS 3 Yrotation Xrotation Zrotation
  JOINT LeftKnee
  {
   OFFSET 0.000000 -40.869800 0.001200
   CHANNELS 3 Yrotation Xrotation Zrotation
   JOINT LeftAnkle
   {
    OFFSET 0.000000 -39.717900 0.002100
    CHANNELS 3 Yrotation Xrotation Zrotation
    JOINT LeftToe
    {
     OFFSET 0.000000 -4.965400 11.033500
     CHANNELS 3 Yrotation Xrotation Zrotation
     End Site
     {
      OFFSET 0.000000 -1.423100 5.872300
     }
    }
   }
  }
 }
}
MOTION
Frames: 15
Frame Time: 0.008333
0.000000 85.388000 0.000000 0.000000 -5.767877 0.000000 0.000000 11.653817 0.000000 0.000000 -5.885947 0.000000 0.000000 -0.000000 0.000000 0.000000 -0.000000 0.000000 0.000000 12.528835 0.000000 0.000000 0.711642 0.000000 0.000000 -0.000000 0.000000 0.000000 0.000000 -90.000000 0.000000 -2.309062 0.000000 0.000000 2.309062 0.000000 0.000000 -0.000000 0.000000 0.000000 -0.000000 90.000000 0.000000 -2.309062 0.000000 0.000000 2.309062 0.000000 0.000000 8.520406 0.000000 0.000000 1.905762 0.000000 -0.000000 -4.658285 0.000000 0.000000 -0.000000 0.000000 0.000000 8.520406 0.000000 0.000000 1.905762 0.000000 -0.000000 -4.658285 0.000000 0.000000 -0.000000 0.000000
-51.708978 57.858044 11.535616 -179.299965 -53.772819 -3.159774 2.222081 21.430513 2.170564 1.156001 12.225994 1.128721 1.473754 15.307792 1.448554 1.128506 12.270181 1.112894 -2.739691 18.998409 -4.036479 -3.759256 -0.431728 -6.437702 10.650793 0.015281 2.515578 2.237193 -49.450474 9.960133 -63.031013 -3.106793 4.933502 -10.822837 -6.852006 5.784213 -15.348944 1.455331 -3.644823 -16.552364 -44.257433 4.288125 62.605538 -4.156040 -12.644201 15.323655 -10.829101 -9.587775 4.831270 -17.196143 -3.985306 -34.752415 74.200339 -40.081254 5.690725 -15.841477 12.890877 0.002819 -0.019892 0.003785 -8.230320 -15.522120 3.719930 86.446561 82.272355 84.327834 0.422059 -21.456524 -17.766557 0.004046 0.007910 0.019573
-51.716984 57.862521 11.536902 -179.270967 -53.793070 -3.174293 2.215417 21.425690 2.174395 1.158898 12.230709 1.135248 1.464762 15.311368 1.446518 1.130494 12.262117 1.115658 -2.745464 19.046773 -4.004145 -3.814330 -0.299129 -6.401462 10.636875 0.037140 2.517886 2.108401 -49.447759 10.065630 -62.970140 -3.114291 4.900702 -10.862162 -6.842723 6.008743 -15.353815 1.435150 -3.638678 -16.586931 -44.286215 4.271283 62.698545 -4.101418 -12.461495 15.262350 -10.835735 -9.658932 4.745691 -17.149264 -3.993161 -34.566410 74.192529 -39.951795 5.695160 -15.863541 12.889650 0.003650 -0.002850 -0.000744 -8.233414 -15.504945 3.705433 86.434978 82.260386 84.308245 0.409987 -21.458027 -17.749793 0.000752 0.011686 0.015024
-51.727539 57.865697 11.539676 -179.240332 -53.802733 -3.188517 2.208816 21.420953 2.178524 1.155610 12.235837 1.136717 1.459762 15.308020 1.446534 1.142270 12.243378 1.125663 -2.766272 19.158742 -3.960749 -3.869489 -0.233430 -6.396635 10.594628 0.063782 2.525763 2.037280 -49.445813 10.135735 -62.893343 -3.117521 4.870008 -10.918455 -6.841760 6.208340 -15.377310 1.430858 -3.633938 -16.599043 -44.306828 4.243846 62.802469 -4.058589 -12.313059 15.196853 -10.880385 -9.686881 4.687464 -17.114748 -4.017382 -34.392774 74.189233 -39.807787 5.692753 -15.895981 12.894398 -0.003391 0.025468 -0.009658 -8.215892 -15.503893 3.675826 86.428669 82.242420 84.327545 0.409813 -21.459302 -17.747888 -0.000564 0.016026 0.012308
-51.740362 57.868413 11.543150 -179.214000 -53.809381 -3.198334 2.223478 21.418155 2.189531 1.125635 12.243003 1.129871 1.475508 15.297897 1.461671 1.142511 12.241397 1.131264 -2.792972 19.195627 -3.964271 -3.913033 -0.122703 -6.366788 10.502618 0.057041 2.559729 2.081051 -49.495773 10.167369 -62.828623 -3.125845 4.755375 -10.969820 -6.836608 6.375852 -15.402702 1.427683 -3.637289 -16.608879 -44.326834 4.234943 62.902165 -4.019793 -12.200392 15.159584 -10.934081 -9.724600 4.666435 -17.089433 -4.055488 -34.219755 74.195293 -39.633883 5.676661 -15.906783 12.895435 -0.014835 0.029921 -0.011835 -8.186898 -15.504043 3.647280 86.408369 82.199156 84.329748 0.382023 -21.456992 -17.734760 -0.001845 0.018513 0.008846
-51.753774 57.870552 11.547269 -179.190061 -53.813818 -3.211820 2.220293 21.423247 2.189498 1.131418 12.241963 1.135711 1.477061 15.300145 1.469437 1.156114 12.257001 1.149338 -2.830931 19.201766 -3.972487 -3.952378 -0.030682 -6.345873 10.429950 0.026048 2.569327 2.208163 -49.555458 10.115747 -62.790861 -3.156622 4.627261 -11.053810 -6.809780 6.517217 -15.439260 1.395591 -3.635342 -16.599358 -44.332226 4.219869 62.989621 -3.989152 -12.128595 15.138184 -10.990481 -9.775546 4.680883 -17.074379 -4.097073 -34.092482 74.206930 -39.474529 5.664800 -15.910047 12.896565 -0.015174 0.033640 -0.014582 -8.099446 -15.509696 3.607374 86.337266 82.151619 84.335364 0.352126 -21.454312 -17.719089 -0.001059 0.020133 0.005602
-51.766816 57.873189 11.551195 -179.142726 -53.824085 -3.250075 2.197365 21.435376 2.192075 1.153567 12.251952 1.142811 1.465382 15.298264 1.479189 1.149368 12.264207 1.146059 -2.845845 19.257931 -3.956175 -3.982038 -0.006143 -6.342719 10.379860 -0.006903 2.597344 2.364329 -49.598226 10.035501 -62.797245 -3.179083 4.538756 -11.097076 -6.792076 6.576745 -15.470382 1.367694 -3.570214 -16.518575 -44.349801 4.137063 63.033123 -3.970790 -12.097513 15.224657 -11.105761 -9.830203 4.710637 -17.060573 -4.135311 -34.070064 74.220124 -39.394011 5.678458 -15.908120 12.895407 -0.015839 0.024097 -0.015657 -8.068429 -15.499723 3.587439 86.267216 82.108956 84.305703 0.312515 -21.455799 -17.705586 0.003620 0.024578 0.005088
-51.782949 57.875032 11.555545 -179.156903 -53.835768 -3.216996 2.213678 21.447771 2.172318 1.147432 12.254283 1.142331 1.469116 15.307268 1.487457 1.142996 12.260211 1.145799 -2.851340 19.272357 -3.952244 -4.001462 0.049026 -6.331198 10.335082 -0.032438 2.633255 2.525445 -49.630608 9.949085 -62.793152 -3.204427 4.454159 -11.080228 -6.786660 6.619573 -15.488000 1.365559 -3.535522 -16.467700 -44.374615 4.111709 63.118281 -3.920081 -12.064790 15.232015 -11.180241 -9.908036 4.804831 -17.051948 -4.190916 -34.044878 74.233865 -39.299844 5.682046 -15.880305 12.900235 -0.024746 0.000145 -0.019156 -7.996372 -15.489526 3.550447 86.159276 82.045506 84.221166 0.274408 -21.462635 -17.687404 -0.016158 0.046738 0.004515
-51.790976 57.874920 11.561727 -179.183615 -53.836182 -3.212173 2.250411 21.440787 2.183380 1.139877 12.259630 1.150844 1.471231 15.319284 1.486131 1.143109 12.256175 1.152082 -2.858905 19.302340 -3.948835 -4.009194 0.068541 -6.319606 10.291649 -0.052996 2.669912 2.673801 -49.652951 9.869505 -62.763151 -3.227067 4.373124 -11.022986 -6.791556 6.614757 -15.504670 1.369232 -3.503716 -16.399142 -44.408898 4.116246 63.180157 -3.830103 -12.061130 15.183716 -11.213552 -9.951869 4.881997 -17.058025 -4.193008 -33.938899 74.237315 -39.148307 5.652275 -15.833180 12.913858 -0.030300 -0.018372 -0.020997 -7.938404 -15.483666 3.558312 86.076396 82.018794 84.167168 0.257019 -21.472330 -17.683705 -0.014066 0.057111 0.007281
-51.797536 57.875832 11.567158 -179.198003 -53.847890 -3.210469 2.265040 21.450212 2.192962 1.132832 12.254045 1.147803 1.470104 15.321916 1.488382 1.148773 12.267030 1.150007 -2.863657 19.326019 -3.940454 -4.007572 0.061922 -6.320363 10.255182 -0.060379 2.702629 2.795859 -49.670705 9.805949 -62.702028 -3.244541 4.297911 -10.957642 -6.808001 6.589764 -15.516651 1.378143 -3.478388 -16.366661 -44.436542 4.120118 63.236164 -3.771914 -12.060781 15.181026 -11.270030 -9.991955 4.910821 -17.049053 -4.186704 -33.881991 74.235888 -39.081575 5.636197 -15.810615 12.923689 -0.033098 -0.027677 -0.020901 -7.911610 -15.469393 3.564680 86.046595 81.992661 84.141003 0.244330 -21.473341 -17.678144 -0.013834 0.060708 0.006789
-51.798244 57.875916 11.573423 -179.230562 -53.856062 -3.209800 2.290267 21.447564 2.213210 1.120699 12.250876 1.146996 1.469225 15.325195 1.490839 1.136753 12.263282 1.154437 -2.843545 19.344569 -3.952556 -4.007755 0.075213 -6.318490 10.247483 -0.034137 2.719285 2.895973 -49.689631 9.755659 -62.614511 -3.258075 4.226949 -10.873447 -6.833360 6.560086 -15.503288 1.403936 -3.478828 -16.348300 -44.468043 4.137817 63.279624 -3.716179 -12.057746 15.172934 -11.311078 -10.009450 5.007196 -17.054379 -4.168661 -33.978008 74.237931 -39.110686 5.631870 -15.786553 12.923276 -0.022338 -0.050404 -0.011353 -7.878670 -15.452532 3.603445 85.962691 81.996954 84.065217 0.232513 -21.479090 -17.683487 -0.006874 0.065860 0.017195
-51.796158 57.875684 11.580003 -179.248937 -53.862632 -3.217073 2.296262 21.439973 2.225585 1.109298 12.254102 1.147068 1.464842 15.325441 1.492577 1.150448 12.268946 1.149870 -2.840929 19.351906 -3.949543 -3.997404 0.095758 -6.318748 10.221077 -0.009187 2.743610 2.992283 -49.711731 9.705617 -62.504712 -3.267339 4.158612 -10.779194 -6.863748 6.535328 -15.506345 1.423177 -3.473856 -16.339027 -44.500541 4.164473 63.299795 -3.675647 -12.055101 15.167493 -11.325081 -10.009882 5.074175 -17.059741 -4.139836 -34.111162 74.233565 -39.194103 5.618323 -15.769950 12.923155 -0.002726 -0.063740 -0.002499 -7.871215 -15.438869 3.645580 85.890803 82.013380 83.987598 0.221059 -21.482039 -17.682709 0.013090 0.067173 0.022118
-51.791366 57.875353 11.586771 -179.263364 -53.867848 -3.225146 2.259169 21.429639 2.211766 1.147298 12.265750 1.159839 1.443082 15.321939 1.496100 1.165432 12.272139 1.141406 -2.842238 19.354857 -3.943455 -3.951835 0.122481 -6.319324 10.195227 0.023687 2.767875 3.088973 -49.734962 9.651977 -62.373864 -3.272535 4.095764 -10.687445 -6.898553 6.519820 -15.502458 1.438210 -3.476345 -16.335625 -44.524891 4.188551 63.343179 -3.619473 -12.039488 15.136404 -11.352187 -10.024840 5.112319 -17.065186 -4.099414 -34.231769 74.220082 -39.290751 5.602012 -15.753418 12.924050 0.014732 -0.070999 0.006055 -7.869304 -15.430857 3.672779 85.860546 82.021456 83.954243 0.228212 -21.481326 -17.687417 0.012560 0.068788 0.022051
-51.777752 57.875538 11.593710 -179.324950 -53.874410 -3.233081 2.292651 21.429273 2.260761 1.155742 12.266207 1.160533 1.417886 15.318312 1.499537 1.166932 12.270803 1.142322 -2.826453 19.360833 -3.949090 -3.915535 0.132802 -6.332494 10.190448 0.067940 2.777274 3.178886 -49.755313 9.595021 -62.227024 -3.277280 4.042391 -10.605257 -6.933314 6.516529 -15.473733 1.445780 -3.499213 -16.334792 -44.533226 4.197170 63.369712 -3.558032 -11.972041 15.086003 -11.412448 -10.004606 5.118561 -17.074579 -3.993057 -34.434999 74.161084 -39.500744 5.614829 -15.731235 12.912715 0.044796 -0.068870 0.019184 -7.873120 -15.413534 3.759268 85.835468 82.049580 83.902849 0.233074 -21.482184 -17.692758 0.020562 0.067935 0.025529
-51.768792 57.875917 11.600291 -179.348243 -53.879082 -3.234102 2.305264 21.431611 2.278073 1.125656 12.262922 1.158667 1.409021 15.315580 1.494555 1.167755 12.273364 1.147597 -2.807226 19.364675 -3.954707 -3.890954 0.137622 -6.353602 10.212036 0.096046 2.767421 3.229916 -49.754476 9.554703 -62.071840 -3.284081 4.001526 -10.529705 -6.968071 6.526754 -15.451119 1.461680 -3.523755 -16.354156 -44.572579 4.244936 63.382548 -3.512698 -11.915902 15.055667 -11.444644 -9.944462 5.090469 -17.074408 -3.942378 -34.496179 74.126842 -39.589498 5.603892 -15.722799 12.920719 0.049599 -0.064840 0.014906 -7.949761 -15.401891 3.819638 85.777924 82.113695 83.768095 0.264962 -21.468512 -17.696541 0.012193 0.060447 0.022961
